<mxfile host="app.diagrams.net" modified="2023-05-18T00:13:33.742Z" agent="Mozilla/5.0 (Windows NT 10.0; Win64; x64) AppleWebKit/537.36 (KHTML, like Gecko) Chrome/113.0.0.0 Safari/537.36" etag="zCxfy6zE2iOE0t3k9ug2" version="21.3.2" type="google">
  <diagram name="Page-1" id="2YBvvXClWsGukQMizWep">
    <mxGraphModel grid="1" page="1" gridSize="10" guides="1" tooltips="1" connect="1" arrows="1" fold="1" pageScale="1" pageWidth="850" pageHeight="1100" math="0" shadow="0">
      <root>
        <mxCell id="0" />
        <mxCell id="1" parent="0" />
        <mxCell id="E87CugjavdnKJ7zLJUua-10" style="edgeStyle=orthogonalEdgeStyle;rounded=0;orthogonalLoop=1;jettySize=auto;html=1;dashed=1;dashPattern=12 12;endArrow=none;endFill=0;" edge="1" parent="1" source="E87CugjavdnKJ7zLJUua-1">
          <mxGeometry relative="1" as="geometry">
            <mxPoint x="-440" y="1990" as="targetPoint" />
          </mxGeometry>
        </mxCell>
        <mxCell id="E87CugjavdnKJ7zLJUua-1" value="Owner" style="shape=umlActor;verticalLabelPosition=bottom;verticalAlign=top;html=1;outlineConnect=0;" vertex="1" parent="1">
          <mxGeometry x="-455" y="60" width="30" height="60" as="geometry" />
        </mxCell>
        <mxCell id="E87CugjavdnKJ7zLJUua-11" style="edgeStyle=orthogonalEdgeStyle;rounded=0;orthogonalLoop=1;jettySize=auto;html=1;dashed=1;dashPattern=12 12;endArrow=none;endFill=0;" edge="1" parent="1" source="E87CugjavdnKJ7zLJUua-2">
          <mxGeometry relative="1" as="geometry">
            <mxPoint x="-180" y="1980" as="targetPoint" />
          </mxGeometry>
        </mxCell>
        <mxCell id="E87CugjavdnKJ7zLJUua-2" value=":WPF" style="rounded=0;whiteSpace=wrap;html=1;" vertex="1" parent="1">
          <mxGeometry x="-280" y="60" width="200" height="60" as="geometry" />
        </mxCell>
        <mxCell id="E87CugjavdnKJ7zLJUua-12" style="edgeStyle=orthogonalEdgeStyle;rounded=0;orthogonalLoop=1;jettySize=auto;html=1;dashed=1;dashPattern=12 12;endArrow=none;endFill=0;" edge="1" parent="1" source="E87CugjavdnKJ7zLJUua-3">
          <mxGeometry relative="1" as="geometry">
            <mxPoint x="60" y="1670" as="targetPoint" />
          </mxGeometry>
        </mxCell>
        <mxCell id="E87CugjavdnKJ7zLJUua-3" value="HotelService" style="rounded=0;whiteSpace=wrap;html=1;" vertex="1" parent="1">
          <mxGeometry x="-40" y="60" width="200" height="60" as="geometry" />
        </mxCell>
        <mxCell id="E87CugjavdnKJ7zLJUua-13" style="edgeStyle=orthogonalEdgeStyle;rounded=0;orthogonalLoop=1;jettySize=auto;html=1;dashed=1;dashPattern=12 12;endArrow=none;endFill=0;" edge="1" parent="1">
          <mxGeometry relative="1" as="geometry">
            <mxPoint x="300" y="1630" as="targetPoint" />
            <mxPoint x="300.0588235294117" y="110" as="sourcePoint" />
          </mxGeometry>
        </mxCell>
        <mxCell id="E87CugjavdnKJ7zLJUua-4" value="HotelRepository" style="rounded=0;whiteSpace=wrap;html=1;" vertex="1" parent="1">
          <mxGeometry x="200" y="60" width="200" height="60" as="geometry" />
        </mxCell>
        <mxCell id="E87CugjavdnKJ7zLJUua-14" style="edgeStyle=orthogonalEdgeStyle;rounded=0;orthogonalLoop=1;jettySize=auto;html=1;dashed=1;dashPattern=12 12;endArrow=none;endFill=0;" edge="1" parent="1" source="E87CugjavdnKJ7zLJUua-5">
          <mxGeometry relative="1" as="geometry">
            <mxPoint x="540" y="1950" as="targetPoint" />
          </mxGeometry>
        </mxCell>
        <mxCell id="E87CugjavdnKJ7zLJUua-5" value="ReservatonService" style="rounded=0;whiteSpace=wrap;html=1;" vertex="1" parent="1">
          <mxGeometry x="440" y="60" width="200" height="60" as="geometry" />
        </mxCell>
        <mxCell id="E87CugjavdnKJ7zLJUua-15" style="edgeStyle=orthogonalEdgeStyle;rounded=0;orthogonalLoop=1;jettySize=auto;html=1;dashed=1;dashPattern=12 12;endArrow=none;endFill=0;" edge="1" parent="1" source="E87CugjavdnKJ7zLJUua-6">
          <mxGeometry relative="1" as="geometry">
            <mxPoint x="790" y="1190" as="targetPoint" />
          </mxGeometry>
        </mxCell>
        <mxCell id="E87CugjavdnKJ7zLJUua-6" value="ReservationRepository" style="rounded=0;whiteSpace=wrap;html=1;" vertex="1" parent="1">
          <mxGeometry x="690" y="60" width="200" height="60" as="geometry" />
        </mxCell>
        <mxCell id="E87CugjavdnKJ7zLJUua-16" style="edgeStyle=orthogonalEdgeStyle;rounded=0;orthogonalLoop=1;jettySize=auto;html=1;dashed=1;dashPattern=12 12;endArrow=none;endFill=0;" edge="1" parent="1" source="E87CugjavdnKJ7zLJUua-7">
          <mxGeometry relative="1" as="geometry">
            <mxPoint x="1030" y="1910" as="targetPoint" />
          </mxGeometry>
        </mxCell>
        <mxCell id="E87CugjavdnKJ7zLJUua-7" value="RenovationRequestRepository" style="rounded=0;whiteSpace=wrap;html=1;" vertex="1" parent="1">
          <mxGeometry x="930" y="60" width="200" height="60" as="geometry" />
        </mxCell>
        <mxCell id="E87CugjavdnKJ7zLJUua-17" style="edgeStyle=orthogonalEdgeStyle;rounded=0;orthogonalLoop=1;jettySize=auto;html=1;dashed=1;dashPattern=12 12;endArrow=none;endFill=0;" edge="1" parent="1" source="E87CugjavdnKJ7zLJUua-8">
          <mxGeometry relative="1" as="geometry">
            <mxPoint x="1270" y="1890" as="targetPoint" />
          </mxGeometry>
        </mxCell>
        <mxCell id="E87CugjavdnKJ7zLJUua-8" value="RenovationRequestFileStorage" style="rounded=0;whiteSpace=wrap;html=1;" vertex="1" parent="1">
          <mxGeometry x="1170" y="60" width="200" height="60" as="geometry" />
        </mxCell>
        <mxCell id="E87CugjavdnKJ7zLJUua-18" style="edgeStyle=orthogonalEdgeStyle;rounded=0;orthogonalLoop=1;jettySize=auto;html=1;dashed=1;dashPattern=12 12;endArrow=none;endFill=0;" edge="1" parent="1" source="E87CugjavdnKJ7zLJUua-9">
          <mxGeometry relative="1" as="geometry">
            <mxPoint x="1510" y="1870" as="targetPoint" />
            <Array as="points">
              <mxPoint x="1510" y="1612" />
            </Array>
          </mxGeometry>
        </mxCell>
        <mxCell id="E87CugjavdnKJ7zLJUua-9" value="Serializer" style="rounded=0;whiteSpace=wrap;html=1;" vertex="1" parent="1">
          <mxGeometry x="1410" y="60" width="200" height="60" as="geometry" />
        </mxCell>
        <mxCell id="E87CugjavdnKJ7zLJUua-19" value="" style="endArrow=classic;html=1;rounded=0;" edge="1" parent="1" target="E87CugjavdnKJ7zLJUua-41">
          <mxGeometry width="50" height="50" relative="1" as="geometry">
            <mxPoint x="-180" y="220" as="sourcePoint" />
            <mxPoint x="50" y="220" as="targetPoint" />
          </mxGeometry>
        </mxCell>
        <mxCell id="E87CugjavdnKJ7zLJUua-20" value="FillForComboBoxHotels(LogedUser)" style="text;whiteSpace=wrap;html=1;" vertex="1" parent="1">
          <mxGeometry x="-160" y="199" width="230" height="40" as="geometry" />
        </mxCell>
        <mxCell id="E87CugjavdnKJ7zLJUua-22" value="" style="endArrow=none;html=1;rounded=0;endFill=0;" edge="1" parent="1">
          <mxGeometry width="50" height="50" relative="1" as="geometry">
            <mxPoint x="60" y="250" as="sourcePoint" />
            <mxPoint x="140" y="250" as="targetPoint" />
            <Array as="points">
              <mxPoint x="100" y="250" />
            </Array>
          </mxGeometry>
        </mxCell>
        <mxCell id="E87CugjavdnKJ7zLJUua-23" value="GetHotelByOwner(user.Username)" style="text;whiteSpace=wrap;html=1;" vertex="1" parent="1">
          <mxGeometry x="65" y="229" width="190" height="20" as="geometry" />
        </mxCell>
        <mxCell id="E87CugjavdnKJ7zLJUua-24" value="" style="endArrow=none;html=1;rounded=0;" edge="1" parent="1">
          <mxGeometry width="50" height="50" relative="1" as="geometry">
            <mxPoint x="140" y="290" as="sourcePoint" />
            <mxPoint x="140" y="250" as="targetPoint" />
          </mxGeometry>
        </mxCell>
        <mxCell id="E87CugjavdnKJ7zLJUua-25" value="" style="endArrow=classic;html=1;rounded=0;" edge="1" parent="1" target="E87CugjavdnKJ7zLJUua-41">
          <mxGeometry width="50" height="50" relative="1" as="geometry">
            <mxPoint x="140" y="290" as="sourcePoint" />
            <mxPoint x="70" y="290" as="targetPoint" />
          </mxGeometry>
        </mxCell>
        <mxCell id="E87CugjavdnKJ7zLJUua-26" value="" style="endArrow=classic;html=1;rounded=0;" edge="1" parent="1" target="E87CugjavdnKJ7zLJUua-42">
          <mxGeometry width="50" height="50" relative="1" as="geometry">
            <mxPoint x="60" y="320" as="sourcePoint" />
            <mxPoint x="290" y="320" as="targetPoint" />
          </mxGeometry>
        </mxCell>
        <mxCell id="E87CugjavdnKJ7zLJUua-27" value="GetAll()" style="text;whiteSpace=wrap;html=1;" vertex="1" parent="1">
          <mxGeometry x="150" y="299" width="70" height="20" as="geometry" />
        </mxCell>
        <mxCell id="E87CugjavdnKJ7zLJUua-28" value="" style="endArrow=classic;html=1;rounded=0;dashed=1;" edge="1" parent="1" target="E87CugjavdnKJ7zLJUua-41">
          <mxGeometry width="50" height="50" relative="1" as="geometry">
            <mxPoint x="300" y="360" as="sourcePoint" />
            <mxPoint x="70" y="360" as="targetPoint" />
          </mxGeometry>
        </mxCell>
        <mxCell id="E87CugjavdnKJ7zLJUua-29" value="" style="endArrow=classic;html=1;rounded=0;dashed=1;" edge="1" parent="1" target="E87CugjavdnKJ7zLJUua-38">
          <mxGeometry width="50" height="50" relative="1" as="geometry">
            <mxPoint x="60" y="390" as="sourcePoint" />
            <mxPoint x="-170" y="390" as="targetPoint" />
          </mxGeometry>
        </mxCell>
        <mxCell id="E87CugjavdnKJ7zLJUua-30" value="" style="endArrow=classic;html=1;rounded=0;dashed=1;" edge="1" parent="1">
          <mxGeometry width="50" height="50" relative="1" as="geometry">
            <mxPoint x="-180" y="410" as="sourcePoint" />
            <mxPoint x="-440" y="410" as="targetPoint" />
          </mxGeometry>
        </mxCell>
        <mxCell id="E87CugjavdnKJ7zLJUua-31" value="hotelList" style="text;whiteSpace=wrap;html=1;" vertex="1" parent="1">
          <mxGeometry x="90" y="338" width="80" height="40" as="geometry" />
        </mxCell>
        <mxCell id="E87CugjavdnKJ7zLJUua-32" value="findedHotels" style="text;html=1;align=center;verticalAlign=middle;resizable=0;points=[];autosize=1;strokeColor=none;fillColor=none;" vertex="1" parent="1">
          <mxGeometry x="-150" y="368" width="90" height="30" as="geometry" />
        </mxCell>
        <mxCell id="E87CugjavdnKJ7zLJUua-33" value="hotelsCB" style="text;html=1;align=center;verticalAlign=middle;resizable=0;points=[];autosize=1;strokeColor=none;fillColor=none;" vertex="1" parent="1">
          <mxGeometry x="-430" y="388" width="70" height="30" as="geometry" />
        </mxCell>
        <mxCell id="E87CugjavdnKJ7zLJUua-34" value="" style="endArrow=classic;html=1;rounded=0;" edge="1" parent="1" target="E87CugjavdnKJ7zLJUua-38">
          <mxGeometry width="50" height="50" relative="1" as="geometry">
            <mxPoint x="-440" y="200" as="sourcePoint" />
            <mxPoint x="-180" y="200" as="targetPoint" />
          </mxGeometry>
        </mxCell>
        <mxCell id="E87CugjavdnKJ7zLJUua-35" value="OnLoad(object sender, RoutedEventArgs e)" style="text;html=1;align=center;verticalAlign=middle;resizable=0;points=[];autosize=1;strokeColor=none;fillColor=none;" vertex="1" parent="1">
          <mxGeometry x="-445" y="178" width="260" height="30" as="geometry" />
        </mxCell>
        <mxCell id="E87CugjavdnKJ7zLJUua-38" value="" style="html=1;points=[];perimeter=orthogonalPerimeter;outlineConnect=0;targetShapes=umlLifeline;portConstraint=eastwest;newEdgeStyle={&quot;edgeStyle&quot;:&quot;elbowEdgeStyle&quot;,&quot;elbow&quot;:&quot;vertical&quot;,&quot;curved&quot;:0,&quot;rounded&quot;:0};" vertex="1" parent="1">
          <mxGeometry x="-185" y="200" width="10" height="210" as="geometry" />
        </mxCell>
        <mxCell id="E87CugjavdnKJ7zLJUua-41" value="" style="html=1;points=[];perimeter=orthogonalPerimeter;outlineConnect=0;targetShapes=umlLifeline;portConstraint=eastwest;newEdgeStyle={&quot;edgeStyle&quot;:&quot;elbowEdgeStyle&quot;,&quot;elbow&quot;:&quot;vertical&quot;,&quot;curved&quot;:0,&quot;rounded&quot;:0};" vertex="1" parent="1">
          <mxGeometry x="55" y="220" width="10" height="170" as="geometry" />
        </mxCell>
        <mxCell id="E87CugjavdnKJ7zLJUua-42" value="" style="html=1;points=[];perimeter=orthogonalPerimeter;outlineConnect=0;targetShapes=umlLifeline;portConstraint=eastwest;newEdgeStyle={&quot;edgeStyle&quot;:&quot;elbowEdgeStyle&quot;,&quot;elbow&quot;:&quot;vertical&quot;,&quot;curved&quot;:0,&quot;rounded&quot;:0};" vertex="1" parent="1">
          <mxGeometry x="296" y="320" width="10" height="40" as="geometry" />
        </mxCell>
        <mxCell id="E87CugjavdnKJ7zLJUua-44" value="" style="endArrow=classic;html=1;rounded=0;" edge="1" parent="1" target="E87CugjavdnKJ7zLJUua-73">
          <mxGeometry width="50" height="50" relative="1" as="geometry">
            <mxPoint x="-440" y="477" as="sourcePoint" />
            <mxPoint x="-180" y="477" as="targetPoint" />
          </mxGeometry>
        </mxCell>
        <mxCell id="E87CugjavdnKJ7zLJUua-45" value="" style="endArrow=classic;html=1;rounded=0;" edge="1" parent="1" target="E87CugjavdnKJ7zLJUua-70">
          <mxGeometry width="50" height="50" relative="1" as="geometry">
            <mxPoint x="-180" y="499" as="sourcePoint" />
            <mxPoint x="530" y="500" as="targetPoint" />
          </mxGeometry>
        </mxCell>
        <mxCell id="E87CugjavdnKJ7zLJUua-46" value="ShowDates(object sender, RoutedEventArgs e)" style="text;html=1;align=center;verticalAlign=middle;resizable=0;points=[];autosize=1;strokeColor=none;fillColor=none;" vertex="1" parent="1">
          <mxGeometry x="-450" y="440" width="270" height="30" as="geometry" />
        </mxCell>
        <mxCell id="E87CugjavdnKJ7zLJUua-47" value="HotelName,StartDate,EndDate,NumberOfDays" style="text;html=1;align=center;verticalAlign=middle;resizable=0;points=[];autosize=1;strokeColor=none;fillColor=none;" vertex="1" parent="1">
          <mxGeometry x="-448" y="455" width="270" height="30" as="geometry" />
        </mxCell>
        <mxCell id="E87CugjavdnKJ7zLJUua-48" value="FindAlternativeDates(comboBoxItem.Content.ToString(), Convert.ToDateTime(StartDate.Text), &lt;br&gt;Convert.ToDateTime(EndDate.Text), Convert.ToInt32(NumberOfDays.Text))" style="text;html=1;align=center;verticalAlign=middle;resizable=0;points=[];autosize=1;strokeColor=none;fillColor=none;" vertex="1" parent="1">
          <mxGeometry x="-95" y="462" width="520" height="40" as="geometry" />
        </mxCell>
        <mxCell id="E87CugjavdnKJ7zLJUua-49" value="" style="endArrow=classic;html=1;rounded=0;" edge="1" parent="1" target="E87CugjavdnKJ7zLJUua-69">
          <mxGeometry width="50" height="50" relative="1" as="geometry">
            <mxPoint x="540" y="530" as="sourcePoint" />
            <mxPoint x="790" y="530" as="targetPoint" />
          </mxGeometry>
        </mxCell>
        <mxCell id="E87CugjavdnKJ7zLJUua-50" value="GetAll()" style="text;html=1;align=center;verticalAlign=middle;resizable=0;points=[];autosize=1;strokeColor=none;fillColor=none;" vertex="1" parent="1">
          <mxGeometry x="630" y="508" width="60" height="30" as="geometry" />
        </mxCell>
        <mxCell id="E87CugjavdnKJ7zLJUua-51" value="" style="endArrow=none;html=1;rounded=0;endFill=0;" edge="1" parent="1">
          <mxGeometry width="50" height="50" relative="1" as="geometry">
            <mxPoint x="540" y="610" as="sourcePoint" />
            <mxPoint x="630" y="610" as="targetPoint" />
          </mxGeometry>
        </mxCell>
        <mxCell id="E87CugjavdnKJ7zLJUua-52" value="IsAvailable(reservations, hotelName, startDate, startDate.AddDays(numberOfDays))" style="text;html=1;align=center;verticalAlign=middle;resizable=0;points=[];autosize=1;strokeColor=none;fillColor=none;" vertex="1" parent="1">
          <mxGeometry x="540" y="588" width="470" height="30" as="geometry" />
        </mxCell>
        <mxCell id="E87CugjavdnKJ7zLJUua-53" value="GetHotelByName(hotelName)" style="text;html=1;align=center;verticalAlign=middle;resizable=0;points=[];autosize=1;strokeColor=none;fillColor=none;" vertex="1" parent="1">
          <mxGeometry x="220" y="608" width="180" height="30" as="geometry" />
        </mxCell>
        <mxCell id="E87CugjavdnKJ7zLJUua-54" value="&amp;nbsp;GetAll()" style="text;html=1;align=center;verticalAlign=middle;resizable=0;points=[];autosize=1;strokeColor=none;fillColor=none;" vertex="1" parent="1">
          <mxGeometry x="150" y="648" width="70" height="30" as="geometry" />
        </mxCell>
        <mxCell id="E87CugjavdnKJ7zLJUua-55" value="" style="endArrow=classic;html=1;rounded=0;" edge="1" parent="1" target="E87CugjavdnKJ7zLJUua-72">
          <mxGeometry width="50" height="50" relative="1" as="geometry">
            <mxPoint x="60" y="670" as="sourcePoint" />
            <mxPoint x="300" y="670" as="targetPoint" />
          </mxGeometry>
        </mxCell>
        <mxCell id="E87CugjavdnKJ7zLJUua-56" value="" style="endArrow=none;html=1;rounded=0;" edge="1" parent="1">
          <mxGeometry width="50" height="50" relative="1" as="geometry">
            <mxPoint x="630" y="760" as="sourcePoint" />
            <mxPoint x="630" y="610" as="targetPoint" />
          </mxGeometry>
        </mxCell>
        <mxCell id="E87CugjavdnKJ7zLJUua-57" value="" style="endArrow=classic;html=1;rounded=1;" edge="1" parent="1" target="E87CugjavdnKJ7zLJUua-70">
          <mxGeometry width="50" height="50" relative="1" as="geometry">
            <mxPoint x="630" y="760" as="sourcePoint" />
            <mxPoint x="540" y="760" as="targetPoint" />
            <Array as="points">
              <mxPoint x="580" y="760" />
            </Array>
          </mxGeometry>
        </mxCell>
        <mxCell id="E87CugjavdnKJ7zLJUua-58" value="" style="endArrow=classic;html=1;rounded=0;" edge="1" parent="1" target="E87CugjavdnKJ7zLJUua-71">
          <mxGeometry width="50" height="50" relative="1" as="geometry">
            <mxPoint x="540" y="630" as="sourcePoint" />
            <mxPoint x="60" y="630" as="targetPoint" />
          </mxGeometry>
        </mxCell>
        <mxCell id="E87CugjavdnKJ7zLJUua-59" value="" style="endArrow=classic;html=1;rounded=0;dashed=1;" edge="1" parent="1" target="E87CugjavdnKJ7zLJUua-71">
          <mxGeometry width="50" height="50" relative="1" as="geometry">
            <mxPoint x="300" y="700" as="sourcePoint" />
            <mxPoint x="60" y="700" as="targetPoint" />
          </mxGeometry>
        </mxCell>
        <mxCell id="E87CugjavdnKJ7zLJUua-60" value="" style="endArrow=classic;html=1;rounded=0;dashed=1;" edge="1" parent="1" target="E87CugjavdnKJ7zLJUua-70">
          <mxGeometry width="50" height="50" relative="1" as="geometry">
            <mxPoint x="60" y="730" as="sourcePoint" />
            <mxPoint x="540" y="730" as="targetPoint" />
          </mxGeometry>
        </mxCell>
        <mxCell id="E87CugjavdnKJ7zLJUua-61" value="hotels" style="text;html=1;align=center;verticalAlign=middle;resizable=0;points=[];autosize=1;strokeColor=none;fillColor=none;" vertex="1" parent="1">
          <mxGeometry x="110" y="678" width="60" height="30" as="geometry" />
        </mxCell>
        <mxCell id="E87CugjavdnKJ7zLJUua-62" value="hotel" style="text;html=1;align=center;verticalAlign=middle;resizable=0;points=[];autosize=1;strokeColor=none;fillColor=none;" vertex="1" parent="1">
          <mxGeometry x="250" y="708" width="50" height="30" as="geometry" />
        </mxCell>
        <mxCell id="E87CugjavdnKJ7zLJUua-63" value="" style="endArrow=classic;html=1;rounded=0;dashed=1;" edge="1" parent="1" target="E87CugjavdnKJ7zLJUua-70">
          <mxGeometry width="50" height="50" relative="1" as="geometry">
            <mxPoint x="790" y="570" as="sourcePoint" />
            <mxPoint x="540" y="570" as="targetPoint" />
          </mxGeometry>
        </mxCell>
        <mxCell id="E87CugjavdnKJ7zLJUua-64" value="reservations" style="text;html=1;align=center;verticalAlign=middle;resizable=0;points=[];autosize=1;strokeColor=none;fillColor=none;" vertex="1" parent="1">
          <mxGeometry x="600" y="546" width="90" height="30" as="geometry" />
        </mxCell>
        <mxCell id="E87CugjavdnKJ7zLJUua-65" value="" style="endArrow=classic;html=1;rounded=0;dashed=1;" edge="1" parent="1" target="E87CugjavdnKJ7zLJUua-73">
          <mxGeometry width="50" height="50" relative="1" as="geometry">
            <mxPoint x="540" y="830" as="sourcePoint" />
            <mxPoint x="-170" y="830" as="targetPoint" />
          </mxGeometry>
        </mxCell>
        <mxCell id="E87CugjavdnKJ7zLJUua-66" value="alternativeDates" style="text;html=1;align=center;verticalAlign=middle;resizable=0;points=[];autosize=1;strokeColor=none;fillColor=none;" vertex="1" parent="1">
          <mxGeometry x="90" y="806" width="110" height="30" as="geometry" />
        </mxCell>
        <mxCell id="E87CugjavdnKJ7zLJUua-67" value="" style="endArrow=classic;html=1;rounded=0;dashed=1;" edge="1" parent="1">
          <mxGeometry width="50" height="50" relative="1" as="geometry">
            <mxPoint x="-180" y="880" as="sourcePoint" />
            <mxPoint x="-440" y="880" as="targetPoint" />
          </mxGeometry>
        </mxCell>
        <mxCell id="E87CugjavdnKJ7zLJUua-68" value="alternatives" style="text;html=1;align=center;verticalAlign=middle;resizable=0;points=[];autosize=1;strokeColor=none;fillColor=none;" vertex="1" parent="1">
          <mxGeometry x="-370" y="856" width="80" height="30" as="geometry" />
        </mxCell>
        <mxCell id="E87CugjavdnKJ7zLJUua-69" value="" style="html=1;points=[];perimeter=orthogonalPerimeter;outlineConnect=0;targetShapes=umlLifeline;portConstraint=eastwest;newEdgeStyle={&quot;edgeStyle&quot;:&quot;elbowEdgeStyle&quot;,&quot;elbow&quot;:&quot;vertical&quot;,&quot;curved&quot;:0,&quot;rounded&quot;:0};" vertex="1" parent="1">
          <mxGeometry x="785" y="530" width="10" height="40" as="geometry" />
        </mxCell>
        <mxCell id="E87CugjavdnKJ7zLJUua-70" value="" style="html=1;points=[];perimeter=orthogonalPerimeter;outlineConnect=0;targetShapes=umlLifeline;portConstraint=eastwest;newEdgeStyle={&quot;edgeStyle&quot;:&quot;elbowEdgeStyle&quot;,&quot;elbow&quot;:&quot;vertical&quot;,&quot;curved&quot;:0,&quot;rounded&quot;:0};" vertex="1" parent="1">
          <mxGeometry x="535" y="498" width="10" height="332" as="geometry" />
        </mxCell>
        <mxCell id="E87CugjavdnKJ7zLJUua-71" value="" style="html=1;points=[];perimeter=orthogonalPerimeter;outlineConnect=0;targetShapes=umlLifeline;portConstraint=eastwest;newEdgeStyle={&quot;edgeStyle&quot;:&quot;elbowEdgeStyle&quot;,&quot;elbow&quot;:&quot;vertical&quot;,&quot;curved&quot;:0,&quot;rounded&quot;:0};" vertex="1" parent="1">
          <mxGeometry x="55" y="630" width="10" height="100" as="geometry" />
        </mxCell>
        <mxCell id="E87CugjavdnKJ7zLJUua-72" value="" style="html=1;points=[];perimeter=orthogonalPerimeter;outlineConnect=0;targetShapes=umlLifeline;portConstraint=eastwest;newEdgeStyle={&quot;edgeStyle&quot;:&quot;elbowEdgeStyle&quot;,&quot;elbow&quot;:&quot;vertical&quot;,&quot;curved&quot;:0,&quot;rounded&quot;:0};" vertex="1" parent="1">
          <mxGeometry x="295" y="670" width="10" height="30" as="geometry" />
        </mxCell>
        <mxCell id="E87CugjavdnKJ7zLJUua-73" value="" style="html=1;points=[];perimeter=orthogonalPerimeter;outlineConnect=0;targetShapes=umlLifeline;portConstraint=eastwest;newEdgeStyle={&quot;edgeStyle&quot;:&quot;elbowEdgeStyle&quot;,&quot;elbow&quot;:&quot;vertical&quot;,&quot;curved&quot;:0,&quot;rounded&quot;:0};" vertex="1" parent="1">
          <mxGeometry x="-185" y="478" width="10" height="402" as="geometry" />
        </mxCell>
        <mxCell id="E87CugjavdnKJ7zLJUua-75" value="" style="endArrow=block;html=1;rounded=0;endFill=1;" edge="1" parent="1" target="E87CugjavdnKJ7zLJUua-79">
          <mxGeometry width="50" height="50" relative="1" as="geometry">
            <mxPoint x="-440" y="950" as="sourcePoint" />
            <mxPoint x="-180" y="950" as="targetPoint" />
          </mxGeometry>
        </mxCell>
        <mxCell id="E87CugjavdnKJ7zLJUua-77" value="AcceptAlternative(object sender, RoutedEventArgs e)" style="text;html=1;align=center;verticalAlign=middle;resizable=0;points=[];autosize=1;strokeColor=none;fillColor=none;" vertex="1" parent="1">
          <mxGeometry x="-450" y="924" width="310" height="30" as="geometry" />
        </mxCell>
        <mxCell id="E87CugjavdnKJ7zLJUua-79" value="" style="html=1;points=[];perimeter=orthogonalPerimeter;outlineConnect=0;targetShapes=umlLifeline;portConstraint=eastwest;newEdgeStyle={&quot;edgeStyle&quot;:&quot;elbowEdgeStyle&quot;,&quot;elbow&quot;:&quot;vertical&quot;,&quot;curved&quot;:0,&quot;rounded&quot;:0};" vertex="1" parent="1">
          <mxGeometry x="-186" y="949" width="10" height="91" as="geometry" />
        </mxCell>
        <mxCell id="E87CugjavdnKJ7zLJUua-80" value="newStart,newEnd" style="text;html=1;align=center;verticalAlign=middle;resizable=0;points=[];autosize=1;strokeColor=none;fillColor=none;" vertex="1" parent="1">
          <mxGeometry x="-435" y="1034" width="120" height="30" as="geometry" />
        </mxCell>
        <mxCell id="E87CugjavdnKJ7zLJUua-83" value="" style="endArrow=block;html=1;rounded=0;endFill=1;dashed=1;" edge="1" parent="1">
          <mxGeometry width="50" height="50" relative="1" as="geometry">
            <mxPoint x="-180" y="1040" as="sourcePoint" />
            <mxPoint x="-440" y="1040" as="targetPoint" />
          </mxGeometry>
        </mxCell>
        <mxCell id="E87CugjavdnKJ7zLJUua-85" value="" style="endArrow=classic;html=1;rounded=0;" edge="1" parent="1" target="E87CugjavdnKJ7zLJUua-147">
          <mxGeometry width="50" height="50" relative="1" as="geometry">
            <mxPoint x="-440" y="1140" as="sourcePoint" />
            <mxPoint x="-180" y="1140" as="targetPoint" />
          </mxGeometry>
        </mxCell>
        <mxCell id="E87CugjavdnKJ7zLJUua-86" value="Reserve(object sender, RoutedEventArgs e)" style="text;html=1;align=center;verticalAlign=middle;resizable=0;points=[];autosize=1;strokeColor=none;fillColor=none;" vertex="1" parent="1">
          <mxGeometry x="-438" y="1114" width="260" height="30" as="geometry" />
        </mxCell>
        <mxCell id="E87CugjavdnKJ7zLJUua-87" value="" style="endArrow=classic;html=1;rounded=0;" edge="1" parent="1" target="E87CugjavdnKJ7zLJUua-105">
          <mxGeometry width="50" height="50" relative="1" as="geometry">
            <mxPoint x="-180" y="1180" as="sourcePoint" />
            <mxPoint x="540" y="1180" as="targetPoint" />
          </mxGeometry>
        </mxCell>
        <mxCell id="E87CugjavdnKJ7zLJUua-88" value="ReserveRenovation(HotelCB,Convert.ToDateTime(StartDate.Text), Convert.ToDateTime(EndDate.Text))" style="text;html=1;align=center;verticalAlign=middle;resizable=0;points=[];autosize=1;strokeColor=none;fillColor=none;" vertex="1" parent="1">
          <mxGeometry x="-110" y="1157" width="570" height="30" as="geometry" />
        </mxCell>
        <mxCell id="E87CugjavdnKJ7zLJUua-89" value="GetAll()" style="text;html=1;align=center;verticalAlign=middle;resizable=0;points=[];autosize=1;strokeColor=none;fillColor=none;" vertex="1" parent="1">
          <mxGeometry x="130" y="1555" width="60" height="30" as="geometry" />
        </mxCell>
        <mxCell id="E87CugjavdnKJ7zLJUua-93" value="NextID()" style="text;html=1;align=center;verticalAlign=middle;resizable=0;points=[];autosize=1;strokeColor=none;fillColor=none;" vertex="1" parent="1">
          <mxGeometry x="725" y="1440" width="70" height="30" as="geometry" />
        </mxCell>
        <mxCell id="E87CugjavdnKJ7zLJUua-94" value="GetHotelById(Convert.ToInt32(comboBoxItem.Tag.ToString()))" style="text;html=1;align=center;verticalAlign=middle;resizable=0;points=[];autosize=1;strokeColor=none;fillColor=none;" vertex="1" parent="1">
          <mxGeometry x="65" y="1515" width="350" height="30" as="geometry" />
        </mxCell>
        <mxCell id="E87CugjavdnKJ7zLJUua-96" value="Save(renovationRequest)" style="text;html=1;align=center;verticalAlign=middle;resizable=0;points=[];autosize=1;strokeColor=none;fillColor=none;" vertex="1" parent="1">
          <mxGeometry x="810" y="1728" width="160" height="30" as="geometry" />
        </mxCell>
        <mxCell id="E87CugjavdnKJ7zLJUua-97" value="Save(renovations)" style="text;html=1;align=center;verticalAlign=middle;resizable=0;points=[];autosize=1;strokeColor=none;fillColor=none;" vertex="1" parent="1">
          <mxGeometry x="1110" y="1757" width="120" height="30" as="geometry" />
        </mxCell>
        <mxCell id="E87CugjavdnKJ7zLJUua-98" value="&lt;div&gt;ToCSV(string fileName, List&amp;lt;T&amp;gt; objects)&lt;/div&gt;" style="text;html=1;align=center;verticalAlign=middle;resizable=0;points=[];autosize=1;strokeColor=none;fillColor=none;" vertex="1" parent="1">
          <mxGeometry x="1275" y="1785" width="240" height="30" as="geometry" />
        </mxCell>
        <mxCell id="E87CugjavdnKJ7zLJUua-99" value="" style="endArrow=classic;html=1;rounded=0;" edge="1" parent="1" target="E87CugjavdnKJ7zLJUua-122">
          <mxGeometry width="50" height="50" relative="1" as="geometry">
            <mxPoint x="540" y="1200" as="sourcePoint" />
            <mxPoint x="790" y="1200" as="targetPoint" />
          </mxGeometry>
        </mxCell>
        <mxCell id="E87CugjavdnKJ7zLJUua-100" value="" style="endArrow=classic;html=1;rounded=0;dashed=1;" edge="1" parent="1" target="E87CugjavdnKJ7zLJUua-105">
          <mxGeometry width="50" height="50" relative="1" as="geometry">
            <mxPoint x="790" y="1240" as="sourcePoint" />
            <mxPoint x="540" y="1240" as="targetPoint" />
          </mxGeometry>
        </mxCell>
        <mxCell id="E87CugjavdnKJ7zLJUua-101" value="IsAvailable(reservations, hotelName, startDate, startDate.AddDays(numberOfDays))" style="text;html=1;align=center;verticalAlign=middle;resizable=0;points=[];autosize=1;strokeColor=none;fillColor=none;" vertex="1" parent="1">
          <mxGeometry x="536" y="1246" width="470" height="30" as="geometry" />
        </mxCell>
        <mxCell id="E87CugjavdnKJ7zLJUua-102" value="" style="endArrow=none;html=1;rounded=0;" edge="1" parent="1">
          <mxGeometry width="50" height="50" relative="1" as="geometry">
            <mxPoint x="630" y="1422" as="sourcePoint" />
            <mxPoint x="630" y="1272" as="targetPoint" />
          </mxGeometry>
        </mxCell>
        <mxCell id="E87CugjavdnKJ7zLJUua-103" value="" style="endArrow=classic;html=1;rounded=1;" edge="1" parent="1" target="E87CugjavdnKJ7zLJUua-105">
          <mxGeometry width="50" height="50" relative="1" as="geometry">
            <mxPoint x="630" y="1422" as="sourcePoint" />
            <mxPoint x="545" y="1422" as="targetPoint" />
            <Array as="points">
              <mxPoint x="580" y="1422" />
            </Array>
          </mxGeometry>
        </mxCell>
        <mxCell id="E87CugjavdnKJ7zLJUua-104" value="" style="endArrow=none;html=1;rounded=0;" edge="1" parent="1">
          <mxGeometry width="50" height="50" relative="1" as="geometry">
            <mxPoint x="630" y="1270" as="sourcePoint" />
            <mxPoint x="540" y="1270" as="targetPoint" />
          </mxGeometry>
        </mxCell>
        <mxCell id="E87CugjavdnKJ7zLJUua-105" value="" style="html=1;points=[];perimeter=orthogonalPerimeter;outlineConnect=0;targetShapes=umlLifeline;portConstraint=eastwest;newEdgeStyle={&quot;edgeStyle&quot;:&quot;elbowEdgeStyle&quot;,&quot;elbow&quot;:&quot;vertical&quot;,&quot;curved&quot;:0,&quot;rounded&quot;:0};" vertex="1" parent="1">
          <mxGeometry x="535" y="1180" width="10" height="760" as="geometry" />
        </mxCell>
        <mxCell id="E87CugjavdnKJ7zLJUua-106" value="GetHotelByName(hotelName)" style="text;html=1;align=center;verticalAlign=middle;resizable=0;points=[];autosize=1;strokeColor=none;fillColor=none;" vertex="1" parent="1">
          <mxGeometry x="220" y="1276" width="180" height="30" as="geometry" />
        </mxCell>
        <mxCell id="E87CugjavdnKJ7zLJUua-107" value="&amp;nbsp;GetAll()" style="text;html=1;align=center;verticalAlign=middle;resizable=0;points=[];autosize=1;strokeColor=none;fillColor=none;" vertex="1" parent="1">
          <mxGeometry x="150" y="1316" width="70" height="30" as="geometry" />
        </mxCell>
        <mxCell id="E87CugjavdnKJ7zLJUua-108" value="" style="endArrow=classic;html=1;rounded=0;" edge="1" parent="1" target="E87CugjavdnKJ7zLJUua-113">
          <mxGeometry width="50" height="50" relative="1" as="geometry">
            <mxPoint x="60" y="1338" as="sourcePoint" />
            <mxPoint x="300" y="1338" as="targetPoint" />
          </mxGeometry>
        </mxCell>
        <mxCell id="E87CugjavdnKJ7zLJUua-109" value="" style="endArrow=classic;html=1;rounded=0;" edge="1" parent="1" target="E87CugjavdnKJ7zLJUua-112">
          <mxGeometry width="50" height="50" relative="1" as="geometry">
            <mxPoint x="540" y="1298" as="sourcePoint" />
            <mxPoint x="60" y="1298" as="targetPoint" />
          </mxGeometry>
        </mxCell>
        <mxCell id="E87CugjavdnKJ7zLJUua-110" value="" style="endArrow=classic;html=1;rounded=0;dashed=1;" edge="1" parent="1" target="E87CugjavdnKJ7zLJUua-112">
          <mxGeometry width="50" height="50" relative="1" as="geometry">
            <mxPoint x="300" y="1368" as="sourcePoint" />
            <mxPoint x="60" y="1368" as="targetPoint" />
          </mxGeometry>
        </mxCell>
        <mxCell id="E87CugjavdnKJ7zLJUua-111" value="" style="endArrow=classic;html=1;rounded=0;dashed=1;" edge="1" parent="1">
          <mxGeometry width="50" height="50" relative="1" as="geometry">
            <mxPoint x="60" y="1398" as="sourcePoint" />
            <mxPoint x="535" y="1398" as="targetPoint" />
          </mxGeometry>
        </mxCell>
        <mxCell id="E87CugjavdnKJ7zLJUua-112" value="" style="html=1;points=[];perimeter=orthogonalPerimeter;outlineConnect=0;targetShapes=umlLifeline;portConstraint=eastwest;newEdgeStyle={&quot;edgeStyle&quot;:&quot;elbowEdgeStyle&quot;,&quot;elbow&quot;:&quot;vertical&quot;,&quot;curved&quot;:0,&quot;rounded&quot;:0};" vertex="1" parent="1">
          <mxGeometry x="55" y="1298" width="10" height="100" as="geometry" />
        </mxCell>
        <mxCell id="E87CugjavdnKJ7zLJUua-113" value="" style="html=1;points=[];perimeter=orthogonalPerimeter;outlineConnect=0;targetShapes=umlLifeline;portConstraint=eastwest;newEdgeStyle={&quot;edgeStyle&quot;:&quot;elbowEdgeStyle&quot;,&quot;elbow&quot;:&quot;vertical&quot;,&quot;curved&quot;:0,&quot;rounded&quot;:0};" vertex="1" parent="1">
          <mxGeometry x="295" y="1338" width="10" height="30" as="geometry" />
        </mxCell>
        <mxCell id="E87CugjavdnKJ7zLJUua-114" value="hotels" style="text;html=1;align=center;verticalAlign=middle;resizable=0;points=[];autosize=1;strokeColor=none;fillColor=none;" vertex="1" parent="1">
          <mxGeometry x="105" y="1347" width="60" height="30" as="geometry" />
        </mxCell>
        <mxCell id="E87CugjavdnKJ7zLJUua-115" value="hotel" style="text;html=1;align=center;verticalAlign=middle;resizable=0;points=[];autosize=1;strokeColor=none;fillColor=none;" vertex="1" parent="1">
          <mxGeometry x="245" y="1377" width="50" height="30" as="geometry" />
        </mxCell>
        <mxCell id="E87CugjavdnKJ7zLJUua-116" value="" style="endArrow=classic;html=1;rounded=0;" edge="1" parent="1" target="E87CugjavdnKJ7zLJUua-123">
          <mxGeometry width="50" height="50" relative="1" as="geometry">
            <mxPoint x="545" y="1464.37" as="sourcePoint" />
            <mxPoint x="1030" y="1465" as="targetPoint" />
          </mxGeometry>
        </mxCell>
        <mxCell id="E87CugjavdnKJ7zLJUua-118" value="" style="endArrow=classic;html=1;rounded=0;" edge="1" parent="1" target="E87CugjavdnKJ7zLJUua-124">
          <mxGeometry width="50" height="50" relative="1" as="geometry">
            <mxPoint x="540" y="1540" as="sourcePoint" />
            <mxPoint x="60" y="1540" as="targetPoint" />
          </mxGeometry>
        </mxCell>
        <mxCell id="E87CugjavdnKJ7zLJUua-119" value="" style="endArrow=classic;html=1;rounded=0;dashed=1;" edge="1" parent="1">
          <mxGeometry width="50" height="50" relative="1" as="geometry">
            <mxPoint x="1030" y="1500" as="sourcePoint" />
            <mxPoint x="545" y="1500" as="targetPoint" />
          </mxGeometry>
        </mxCell>
        <mxCell id="E87CugjavdnKJ7zLJUua-120" value="" style="endArrow=classic;html=1;rounded=0;dashed=1;" edge="1" parent="1">
          <mxGeometry width="50" height="50" relative="1" as="geometry">
            <mxPoint x="55" y="1661" as="sourcePoint" />
            <mxPoint x="535" y="1661" as="targetPoint" />
          </mxGeometry>
        </mxCell>
        <mxCell id="E87CugjavdnKJ7zLJUua-122" value="" style="html=1;points=[];perimeter=orthogonalPerimeter;outlineConnect=0;targetShapes=umlLifeline;portConstraint=eastwest;newEdgeStyle={&quot;edgeStyle&quot;:&quot;elbowEdgeStyle&quot;,&quot;elbow&quot;:&quot;vertical&quot;,&quot;curved&quot;:0,&quot;rounded&quot;:0};" vertex="1" parent="1">
          <mxGeometry x="787" y="1200" width="10" height="40" as="geometry" />
        </mxCell>
        <mxCell id="E87CugjavdnKJ7zLJUua-123" value="" style="html=1;points=[];perimeter=orthogonalPerimeter;outlineConnect=0;targetShapes=umlLifeline;portConstraint=eastwest;newEdgeStyle={&quot;edgeStyle&quot;:&quot;elbowEdgeStyle&quot;,&quot;elbow&quot;:&quot;vertical&quot;,&quot;curved&quot;:0,&quot;rounded&quot;:0};" vertex="1" parent="1">
          <mxGeometry x="1026" y="1460" width="10" height="40" as="geometry" />
        </mxCell>
        <mxCell id="E87CugjavdnKJ7zLJUua-124" value="" style="html=1;points=[];perimeter=orthogonalPerimeter;outlineConnect=0;targetShapes=umlLifeline;portConstraint=eastwest;newEdgeStyle={&quot;edgeStyle&quot;:&quot;elbowEdgeStyle&quot;,&quot;elbow&quot;:&quot;vertical&quot;,&quot;curved&quot;:0,&quot;rounded&quot;:0};" vertex="1" parent="1">
          <mxGeometry x="55" y="1540" width="10" height="120" as="geometry" />
        </mxCell>
        <mxCell id="E87CugjavdnKJ7zLJUua-125" value="renovations.Max(h =&amp;gt; h.Id) + 1" style="text;html=1;align=center;verticalAlign=middle;resizable=0;points=[];autosize=1;strokeColor=none;fillColor=none;" vertex="1" parent="1">
          <mxGeometry x="581" y="1478" width="190" height="30" as="geometry" />
        </mxCell>
        <mxCell id="E87CugjavdnKJ7zLJUua-126" value="hotel" style="text;html=1;align=center;verticalAlign=middle;resizable=0;points=[];autosize=1;strokeColor=none;fillColor=none;" vertex="1" parent="1">
          <mxGeometry x="90" y="1636" width="50" height="30" as="geometry" />
        </mxCell>
        <mxCell id="E87CugjavdnKJ7zLJUua-127" value="" style="endArrow=classic;html=1;rounded=0;" edge="1" parent="1">
          <mxGeometry width="50" height="50" relative="1" as="geometry">
            <mxPoint x="65" y="1580" as="sourcePoint" />
            <mxPoint x="295" y="1580" as="targetPoint" />
          </mxGeometry>
        </mxCell>
        <mxCell id="E87CugjavdnKJ7zLJUua-128" value="" style="endArrow=classic;html=1;rounded=0;dashed=1;" edge="1" parent="1" target="E87CugjavdnKJ7zLJUua-124">
          <mxGeometry width="50" height="50" relative="1" as="geometry">
            <mxPoint x="300" y="1620" as="sourcePoint" />
            <mxPoint x="350" y="1570" as="targetPoint" />
          </mxGeometry>
        </mxCell>
        <mxCell id="E87CugjavdnKJ7zLJUua-129" value="hotels" style="text;html=1;align=center;verticalAlign=middle;resizable=0;points=[];autosize=1;strokeColor=none;fillColor=none;" vertex="1" parent="1">
          <mxGeometry x="100" y="1597" width="60" height="30" as="geometry" />
        </mxCell>
        <mxCell id="E87CugjavdnKJ7zLJUua-130" value="" style="html=1;points=[];perimeter=orthogonalPerimeter;outlineConnect=0;targetShapes=umlLifeline;portConstraint=eastwest;newEdgeStyle={&quot;edgeStyle&quot;:&quot;elbowEdgeStyle&quot;,&quot;elbow&quot;:&quot;vertical&quot;,&quot;curved&quot;:0,&quot;rounded&quot;:0};" vertex="1" parent="1">
          <mxGeometry x="295" y="1579" width="10" height="41" as="geometry" />
        </mxCell>
        <mxCell id="E87CugjavdnKJ7zLJUua-131" value="" style="endArrow=classic;html=1;rounded=0;" edge="1" parent="1" source="E87CugjavdnKJ7zLJUua-105" target="E87CugjavdnKJ7zLJUua-140">
          <mxGeometry width="50" height="50" relative="1" as="geometry">
            <mxPoint x="550" y="1690" as="sourcePoint" />
            <mxPoint x="1010" y="1750" as="targetPoint" />
          </mxGeometry>
        </mxCell>
        <mxCell id="E87CugjavdnKJ7zLJUua-132" value="" style="endArrow=classic;html=1;rounded=0;" edge="1" parent="1" target="E87CugjavdnKJ7zLJUua-142">
          <mxGeometry width="50" height="50" relative="1" as="geometry">
            <mxPoint x="1030" y="1780" as="sourcePoint" />
            <mxPoint x="1250" y="1780" as="targetPoint" />
          </mxGeometry>
        </mxCell>
        <mxCell id="E87CugjavdnKJ7zLJUua-133" value="" style="endArrow=classic;html=1;rounded=0;" edge="1" parent="1" target="E87CugjavdnKJ7zLJUua-143">
          <mxGeometry width="50" height="50" relative="1" as="geometry">
            <mxPoint x="1270" y="1810" as="sourcePoint" />
            <mxPoint x="1510" y="1810" as="targetPoint" />
          </mxGeometry>
        </mxCell>
        <mxCell id="E87CugjavdnKJ7zLJUua-134" value="" style="endArrow=classic;html=1;rounded=0;dashed=1;" edge="1" parent="1" target="E87CugjavdnKJ7zLJUua-142">
          <mxGeometry width="50" height="50" relative="1" as="geometry">
            <mxPoint x="1510" y="1860" as="sourcePoint" />
            <mxPoint x="1300" y="1860" as="targetPoint" />
          </mxGeometry>
        </mxCell>
        <mxCell id="E87CugjavdnKJ7zLJUua-135" value="" style="endArrow=classic;html=1;rounded=0;dashed=1;" edge="1" parent="1" target="E87CugjavdnKJ7zLJUua-140">
          <mxGeometry width="50" height="50" relative="1" as="geometry">
            <mxPoint x="1270" y="1880" as="sourcePoint" />
            <mxPoint x="1050" y="1900" as="targetPoint" />
          </mxGeometry>
        </mxCell>
        <mxCell id="E87CugjavdnKJ7zLJUua-136" value="" style="endArrow=classic;html=1;rounded=0;dashed=1;" edge="1" parent="1">
          <mxGeometry width="50" height="50" relative="1" as="geometry">
            <mxPoint x="1030" y="1900" as="sourcePoint" />
            <mxPoint x="545" y="1900" as="targetPoint" />
          </mxGeometry>
        </mxCell>
        <mxCell id="E87CugjavdnKJ7zLJUua-137" value="csv.ToString()" style="text;html=1;align=center;verticalAlign=middle;resizable=0;points=[];autosize=1;strokeColor=none;fillColor=none;" vertex="1" parent="1">
          <mxGeometry x="1324" y="1838" width="100" height="30" as="geometry" />
        </mxCell>
        <mxCell id="E87CugjavdnKJ7zLJUua-138" value="list" style="text;html=1;align=center;verticalAlign=middle;resizable=0;points=[];autosize=1;strokeColor=none;fillColor=none;" vertex="1" parent="1">
          <mxGeometry x="1040" y="1857" width="40" height="30" as="geometry" />
        </mxCell>
        <mxCell id="E87CugjavdnKJ7zLJUua-139" value="entity" style="text;html=1;align=center;verticalAlign=middle;resizable=0;points=[];autosize=1;strokeColor=none;fillColor=none;" vertex="1" parent="1">
          <mxGeometry x="634" y="1875" width="50" height="30" as="geometry" />
        </mxCell>
        <mxCell id="E87CugjavdnKJ7zLJUua-140" value="" style="html=1;points=[];perimeter=orthogonalPerimeter;outlineConnect=0;targetShapes=umlLifeline;portConstraint=eastwest;newEdgeStyle={&quot;edgeStyle&quot;:&quot;elbowEdgeStyle&quot;,&quot;elbow&quot;:&quot;vertical&quot;,&quot;curved&quot;:0,&quot;rounded&quot;:0};" vertex="1" parent="1">
          <mxGeometry x="1025" y="1750" width="10" height="150" as="geometry" />
        </mxCell>
        <mxCell id="E87CugjavdnKJ7zLJUua-142" value="" style="html=1;points=[];perimeter=orthogonalPerimeter;outlineConnect=0;targetShapes=umlLifeline;portConstraint=eastwest;newEdgeStyle={&quot;edgeStyle&quot;:&quot;elbowEdgeStyle&quot;,&quot;elbow&quot;:&quot;vertical&quot;,&quot;curved&quot;:0,&quot;rounded&quot;:0};" vertex="1" parent="1">
          <mxGeometry x="1265" y="1780" width="10" height="100" as="geometry" />
        </mxCell>
        <mxCell id="E87CugjavdnKJ7zLJUua-143" value="" style="html=1;points=[];perimeter=orthogonalPerimeter;outlineConnect=0;targetShapes=umlLifeline;portConstraint=eastwest;newEdgeStyle={&quot;edgeStyle&quot;:&quot;elbowEdgeStyle&quot;,&quot;elbow&quot;:&quot;vertical&quot;,&quot;curved&quot;:0,&quot;rounded&quot;:0};" vertex="1" parent="1">
          <mxGeometry x="1506" y="1809.5" width="10" height="50.5" as="geometry" />
        </mxCell>
        <mxCell id="E87CugjavdnKJ7zLJUua-144" value="" style="endArrow=classic;html=1;rounded=0;dashed=1;" edge="1" parent="1" target="E87CugjavdnKJ7zLJUua-147">
          <mxGeometry width="50" height="50" relative="1" as="geometry">
            <mxPoint x="540" y="1940" as="sourcePoint" />
            <mxPoint x="-180" y="1940" as="targetPoint" />
          </mxGeometry>
        </mxCell>
        <mxCell id="E87CugjavdnKJ7zLJUua-145" value="Message" style="text;html=1;align=center;verticalAlign=middle;resizable=0;points=[];autosize=1;strokeColor=none;fillColor=none;" vertex="1" parent="1">
          <mxGeometry x="-168" y="1915" width="70" height="30" as="geometry" />
        </mxCell>
        <mxCell id="E87CugjavdnKJ7zLJUua-146" value="" style="endArrow=classic;html=1;rounded=0;dashed=1;" edge="1" parent="1">
          <mxGeometry width="50" height="50" relative="1" as="geometry">
            <mxPoint x="-180" y="1970" as="sourcePoint" />
            <mxPoint x="-440" y="1970" as="targetPoint" />
          </mxGeometry>
        </mxCell>
        <mxCell id="E87CugjavdnKJ7zLJUua-147" value="" style="html=1;points=[];perimeter=orthogonalPerimeter;outlineConnect=0;targetShapes=umlLifeline;portConstraint=eastwest;newEdgeStyle={&quot;edgeStyle&quot;:&quot;elbowEdgeStyle&quot;,&quot;elbow&quot;:&quot;vertical&quot;,&quot;curved&quot;:0,&quot;rounded&quot;:0};" vertex="1" parent="1">
          <mxGeometry x="-185" y="1140" width="10" height="830" as="geometry" />
        </mxCell>
        <mxCell id="E87CugjavdnKJ7zLJUua-148" value="Message" style="text;html=1;align=center;verticalAlign=middle;resizable=0;points=[];autosize=1;strokeColor=none;fillColor=none;" vertex="1" parent="1">
          <mxGeometry x="-435" y="1945" width="70" height="30" as="geometry" />
        </mxCell>
      </root>
    </mxGraphModel>
  </diagram>
</mxfile>
